# xmcd
#
# Track frame offsets: 
#        150
#        13568
#        26652
#        38567
#        49438
#        60138
#        75972
#        96251
#        110384
#        125100
#        142929
#        157659
#        176645
#        194479
#        212416
#        228180
#        242715
#        260494
#        283728
#        298881
#
# Disc length: 4178 seconds
#
# Revision: 1
# Processed by: cddbd v1.5.2PL0 Copyright (c) Steve Scherf et al.
# Submitted via: ExactAudioCopy v1.3
#
DISCID=0f105014
DTITLE=Dr. Feelgood - Feel The Rhythm The Best Of Dr. Feelgood 1984-19
DTITLE=87
DYEAR=2013
DGENRE=Rock
TTITLE0=Dust My Broom
TTITLE1=Dimples
TTITLE2=Tore Down
TTITLE3=Mad Man Blues
TTITLE4=My Babe 
TTITLE5=Can't Find The Lady
TTITLE6=Rock Me Baby
TTITLE7=Don't Start Me Talking
TTITLE8=Hunting Shooting Fishing
TTITLE9=Break These Chains 
TTITLE10=Heartbeat
TTITLE11=(I Wanna) Make Love To You
TTITLE12=Highway 61
TTITLE13=Quit While You're Behind
TTITLE14=Nothing Like It 
TTITLE15=Spy Vs Spy
TTITLE16=Hurricane
TTITLE17=Crack Me Up
TTITLE18=Lights Of Downtown 
TTITLE19=Don't Underestimate Your Enemy 
EXTD=
EXTT0=
EXTT1=
EXTT2=
EXTT3=
EXTT4=
EXTT5=
EXTT6=
EXTT7=
EXTT8=
EXTT9=
EXTT10=
EXTT11=
EXTT12=
EXTT13=
EXTT14=
EXTT15=
EXTT16=
EXTT17=
EXTT18=
EXTT19=
PLAYORDER=
